<svg width="105" height="78" viewBox="0 0 105 78" fill="none" xmlns="http://www.w3.org/2000/svg">
<g clip-path="url(#clip0_33_13)">
<path d="M91.6579 15.6588C90.8492 16.5789 90.2786 17.3006 89.6309 17.9471C88.2165 19.3563 86.7916 19.5992 85.8639 18.6449C84.9747 17.7316 85.2162 16.3839 86.5956 15.091C87.3028 14.4274 88.122 13.8802 89.0672 13.1448C82.5625 7.631 75.5116 4.81939 67.2004 4.26186C67.2004 5.51374 67.2004 6.68354 67.2004 7.84991C67.2004 9.2523 66.5667 10.2374 65.0718 10.2203C63.5734 10.2032 62.9818 9.19415 62.9958 7.79518C63.0098 6.66643 62.9958 5.53768 62.9958 4.31658C58.5216 4.42262 54.4605 5.48296 50.543 7.15898C50.3294 7.25133 50.1229 7.35736 49.9128 7.45656C47.7107 8.46217 46.4329 8.30825 45.8517 6.96401C45.2566 5.59241 45.9217 4.65863 48.2289 3.63591C70.4283 -6.20131 95.8696 4.67231 103.13 27.367C110.048 48.9843 97.1649 71.6585 74.0692 76.9465C65.0088 79.0193 56.2495 78.0137 47.8227 74.1828C47.5077 74.0391 47.1996 73.8749 46.895 73.7073C45.7467 73.0745 45.3406 72.0894 45.9147 70.9641C46.4749 69.8627 47.4726 69.548 48.726 70.0269C51.1591 70.9607 53.5748 71.98 56.0814 72.6812C58.2415 73.2866 60.5171 73.5021 62.9923 73.9331C62.9923 72.5478 62.9748 71.4224 62.9958 70.3005C63.0238 68.6485 63.8255 67.6599 65.1419 67.766C66.6438 67.8857 67.2179 68.8366 67.1969 70.2287C67.1829 71.354 67.1969 72.4828 67.1969 73.6013C74.2128 73.6868 84.0924 69.7259 88.9517 64.6944C88.0275 63.9624 87.0402 63.2647 86.1545 62.4609C85.0972 61.5031 84.9186 60.2957 85.9724 59.3106C86.9457 58.4008 88.1325 58.5684 89.0812 59.533C89.9215 60.3881 90.7022 61.2945 91.6404 62.324C97.1859 56.0338 100.141 49.169 100.645 41.0522C99.9482 41.0522 99.332 41.0522 98.7123 41.0522C95.5125 41.0488 94.4867 40.5358 94.5217 38.9555C94.5567 37.4163 95.544 36.9511 98.7998 36.9443C99.367 36.9443 99.9341 36.9443 100.624 36.9443C100.134 28.8652 97.1544 22.0072 91.6614 15.652L91.6579 15.6588Z" fill="white"/>
<path d="M57.3103 43.2413C57.1387 41.3498 56.5961 39.407 56.8692 37.5771C57.6149 32.5832 62.6912 29.8092 67.8901 31.4579C69.1294 31.8512 69.7736 31.5639 70.5753 30.7635C73.4636 27.8664 76.4079 25.0206 79.3382 22.1645C80.763 20.7724 81.9429 20.6116 82.9441 21.6378C83.8999 22.6194 83.7353 23.714 82.3805 25.0411C79.3767 27.9895 76.3799 30.9414 73.3341 33.8454C72.6584 34.4918 72.5499 34.981 72.8859 35.8805C74.0518 38.9897 73.7542 41.986 71.37 44.4795C68.9334 47.0244 65.772 47.5169 62.5127 46.5763C61.0423 46.1487 60.3246 46.5352 59.3933 47.4553C58.007 48.8304 55.9274 48.4336 55.7314 46.7644C55.6438 46.0085 56.2495 45.1363 56.6556 44.3769C56.8867 43.9425 57.3488 43.6279 57.7059 43.2584C57.5729 43.2516 57.4398 43.2482 57.3103 43.2413ZM65.0368 35.1896C62.4917 35.2101 60.8987 36.6843 60.9057 39.0137C60.9127 41.3122 62.5477 42.8069 65.0719 42.8138C67.6941 42.824 69.3465 41.2883 69.2905 38.9008C69.2345 36.6159 67.5785 35.1691 65.0368 35.1896Z" fill="white"/>
<path d="M23.0781 41.0556C16.4859 41.0556 9.89014 41.0556 3.29788 41.0556C2.83225 41.0556 2.35613 41.1001 1.90101 41.0317C0.710688 40.8504 -0.0245074 40.1561 -9.08447e-07 38.9623C0.0280066 37.772 0.777206 37.0503 1.98153 36.9785C3.31888 36.8964 4.66324 36.9511 6.0076 36.9511C18.2014 36.9511 30.3986 36.9511 42.5924 36.9511C43.002 36.9511 43.4081 36.9511 43.8177 36.9511C45.1865 36.9648 46.1248 37.5976 46.1423 38.9589C46.1598 40.4194 45.176 41.0556 43.7337 41.0556C38.8324 41.0556 33.931 41.0556 29.0297 41.0556C27.0447 41.0556 25.0632 41.0556 23.0781 41.0556Z" fill="white"/>
<path d="M30.7732 24.6307C35.9021 24.6307 41.0309 24.6272 46.1563 24.6307C48.0608 24.6307 48.9746 25.3011 48.9921 26.6556C49.0061 28.0272 48.0888 28.7318 46.2088 28.7318C35.9511 28.7386 25.6968 28.7386 15.4391 28.7318C13.5556 28.7318 12.5999 28.0374 12.5824 26.7035C12.5649 25.3695 13.5381 24.6307 15.3866 24.6272C20.5155 24.617 25.6443 24.6272 30.7697 24.6272L30.7732 24.6307Z" fill="white"/>
<path d="M30.8362 53.3727C25.7074 53.3727 20.5785 53.3762 15.4531 53.3727C13.5626 53.3727 12.6104 52.6852 12.5859 51.3547C12.5613 50.0173 13.5346 49.2716 15.3796 49.2682C25.6373 49.2614 35.8916 49.2614 46.1493 49.2682C48.0573 49.2682 48.9746 49.9318 48.9956 51.2828C49.0201 52.6886 48.0713 53.3693 46.0478 53.3727C40.9784 53.3796 35.9091 53.3727 30.8397 53.3727H30.8362Z" fill="white"/>
<path d="M38.5663 16.4216C35.0058 16.4216 31.4454 16.4318 27.8884 16.4182C26.152 16.4113 25.2172 15.6896 25.1892 14.4035C25.1647 13.114 26.117 12.3239 27.8114 12.3205C34.9883 12.3068 42.1652 12.3239 49.3422 12.3068C50.816 12.3034 51.9048 12.748 52.0274 14.3317C52.1324 15.6588 51.0821 16.4113 49.2406 16.4182C45.6802 16.4284 42.1232 16.4182 38.5628 16.4182L38.5663 16.4216Z" fill="white"/>
<path d="M38.4858 65.6932C35.1004 65.6932 31.7185 65.6932 28.3331 65.6932C26.1695 65.6932 25.1577 65.016 25.1892 63.5965C25.2172 62.2249 26.18 61.5853 28.242 61.5853C35.1844 61.5853 42.1302 61.5818 49.0726 61.5853C51.0751 61.5853 52.0729 62.3001 52.0449 63.6786C52.0169 65.0262 51.0226 65.6898 48.9886 65.6898C45.4876 65.6932 41.9867 65.6898 38.4858 65.6898V65.6932Z" fill="white"/>
</g>
<defs>
<clipPath id="clip0_33_13">
<rect width="105" height="78" fill="white"/>
</clipPath>
</defs>
</svg>
