<svg width="99" height="99" viewBox="0 0 99 99" fill="none" xmlns="http://www.w3.org/2000/svg">
<path d="M26.269 42.8053C25.8103 43.8109 25.4123 45.0627 24.7135 46.12C23.7413 47.5935 22.4986 48.8847 21.4748 50.3309C21.1983 50.7198 21.0828 51.4763 21.2651 51.9047C24.3975 59.248 28.7816 65.7679 34.4205 71.419C34.7669 71.7684 35.5872 71.8869 36.1097 71.7714C37.7868 71.4038 39.4274 70.8843 41.0802 70.4042C43.0733 69.8239 44.9175 70.1065 46.473 71.501C50.2768 74.919 54.0837 78.337 57.7994 81.8461C59.9413 83.8695 60.0294 86.9685 58.2095 89.2866C55.4509 92.7987 52.0906 95.6121 48.1835 97.751C46.3211 98.7718 44.3918 98.708 42.5173 97.7024C26.7612 89.2501 14.8697 77.07 7.20438 60.8704C3.43702 52.9042 1.20395 44.5006 0.0919719 35.7384C-0.357681 32.202 0.845444 29.9355 3.61324 28.0488C6.60586 26.0102 9.75342 24.33 13.2261 23.2971C16.7656 22.2458 19.3723 23.6009 20.6545 27.0766C22.2465 31.3908 23.878 35.6929 25.47 40.0071C25.7647 40.8031 25.9409 41.6447 26.269 42.8083V42.8053ZM3.60108 33.4173C3.65881 33.9277 3.68312 34.1312 3.70134 34.3318C5.1931 49.4437 10.7105 62.9181 20.2048 74.758C26.6913 82.8456 34.5937 89.2319 43.6991 94.1507C44.7109 94.6976 45.6557 94.9832 46.8163 94.3087C50.049 92.425 52.8654 90.0978 55.1865 87.1538C56.0494 86.06 55.9613 85.1607 54.9648 84.2493C51.4161 81.0014 47.9131 77.705 44.3037 74.5271C43.766 74.0531 42.6905 73.8404 41.9704 73.9954C39.9014 74.442 37.8597 75.0587 35.8636 75.7666C34.5846 76.2193 33.7126 75.9854 32.7556 75.0405C25.9591 68.3352 20.7456 60.5787 17.2091 51.7133C16.9539 51.0722 17.1393 49.9845 17.5433 49.4012C18.8376 47.5327 20.4053 45.8526 21.7026 43.9871C22.1219 43.3825 22.3467 42.3101 22.1128 41.6417C20.5329 37.1087 18.7981 32.6304 17.1362 28.1278C16.6623 26.8426 15.7842 26.4325 14.5112 26.7849C10.7499 27.83 7.37756 29.6195 4.43051 32.1747C4.0082 32.5392 3.78945 33.1378 3.60716 33.4203L3.60108 33.4173Z" fill="white"/>
<path d="M86.8475 83.593C86.5954 81.4055 86.3645 79.3669 86.1245 77.3283C85.7963 74.5635 85.3892 71.8079 85.1735 69.037C85.1097 68.2289 85.3558 67.1898 85.8571 66.5791C103.023 45.564 94.5342 12.1226 65.5073 4.94334C49.2864 0.929887 35.9578 6.32268 25.5642 19.2593C25.47 19.3778 25.3728 19.4963 25.2907 19.6239C24.5798 20.7267 23.6228 21.1187 22.447 20.4503C21.4626 19.8882 21.3532 18.5757 22.3893 17.4151C24.7773 14.7415 27.059 11.9038 29.7903 9.62216C37.8324 2.8956 47.2113 -0.273237 57.7052 0.0184299C77.3684 0.568343 94.3732 15.1031 97.6605 34.4685C99.693 46.442 97.1501 57.5162 89.8341 67.3296C88.9409 68.5266 88.8467 69.6508 89.0138 70.9845C89.6518 76.1039 90.2716 81.2263 90.8701 86.3517C91.0767 88.1291 89.7247 89.083 88.0689 88.3326C83.0984 86.0752 78.1492 83.7632 73.1575 81.5544C72.5134 81.2688 71.6171 81.3083 70.9031 81.4754C69.2321 81.8613 67.6067 82.4416 65.9509 82.8882C64.7781 83.2041 63.7603 82.9155 63.4292 81.6395C63.095 80.3543 63.8667 79.695 65.0364 79.3304C67.1054 78.6833 69.141 77.9177 71.2282 77.3343C71.8389 77.1642 72.647 77.2645 73.2395 77.5258C77.4443 79.3942 81.6128 81.3387 85.7963 83.2497C86.0637 83.3712 86.3584 83.4351 86.8506 83.593H86.8475Z" fill="white"/>
<path d="M87.5342 42.0001C87.4096 57.349 75.7429 70.6958 60.5732 72.6706C58.6258 72.9228 56.6418 72.9015 54.6761 72.9653C53.4244 73.0048 52.4491 72.5764 52.3944 71.1302C52.3458 69.918 53.2147 69.2526 54.828 69.3225C62.3172 69.6446 68.9495 67.3902 74.4639 62.3529C82.2994 55.1919 85.4834 46.2171 83.0346 35.8538C80.6466 25.7427 74.1175 18.9189 64.1583 15.8503C50.1644 11.5391 35.6206 19.0313 30.5559 32.8308C30.3068 33.5114 29.7022 34.2253 29.0733 34.5383C28.6661 34.7418 27.6453 34.4258 27.3719 34.0218C27.0103 33.484 26.8311 32.53 27.0559 31.9406C27.8185 29.9658 28.5993 27.9515 29.7234 26.1741C36.2951 15.7835 45.7529 10.5001 58.085 11.0014C72.7291 11.5938 85.3102 23.3942 87.1514 37.9258C87.3215 39.2778 87.4096 40.642 87.5372 42.0001H87.5342Z" fill="white"/>
<path d="M58.2369 40.1286C62.2716 40.1286 66.1089 40.1286 69.9461 40.1286C70.3988 40.1286 70.9973 39.9888 71.2768 40.2167C71.8753 40.7119 72.6258 41.353 72.7382 42.0305C72.9053 43.024 72.1366 43.7531 71.0672 43.7592C66.1605 43.7957 61.2538 43.7987 56.3502 43.7744C55.1987 43.7683 54.5971 43.0574 54.5941 41.9211C54.5789 37.1663 54.5728 32.4085 54.5941 27.6538C54.6002 26.3413 55.4114 25.4541 56.4808 25.5726C57.6657 25.7032 58.2369 26.4476 58.2339 27.6447C58.2278 31.1872 58.2339 34.7267 58.2339 38.2692C58.2339 38.8191 58.2339 39.369 58.2339 40.1255L58.2369 40.1286Z" fill="white"/>
</svg>
