<svg width="94" height="94" viewBox="0 0 94 94" fill="none" xmlns="http://www.w3.org/2000/svg">
<path d="M82.1889 19.9336C82.1383 20.3405 82.024 21.0852 81.9521 21.8325C81.7926 23.4735 82.1995 24.0506 83.766 24.5878C84.8511 24.9602 85.9548 25.3112 86.9814 25.8139C90.5692 27.5772 91.7527 30.6144 90.3218 34.3352C89.9574 35.2793 89.4574 36.1756 88.9894 37.0772C88.2367 38.5293 88.4229 39.3458 89.6862 40.4362C90.5558 41.1862 91.4468 41.9389 92.1835 42.8112C94.5984 45.6756 94.6064 48.5745 92.2021 51.4628C91.4734 52.3378 90.5665 53.0771 89.6835 53.8085C88.4229 54.8537 88.2872 55.6569 88.9867 57.1596C89.6543 58.5904 90.4043 60.0479 90.6941 61.5771C91.2846 64.6968 90.0824 66.8776 87.2208 68.3032C86.0798 68.8697 84.8537 69.2792 83.6357 69.6728C82.3325 70.0957 81.8112 70.9095 81.9229 72.2686C82.0293 73.5372 82.1995 74.8457 82.0107 76.0877C81.3644 80.335 78.5825 82.4441 74.266 82.1276C71.688 81.9397 69.9743 83.0735 69.1251 85.5292C67.3751 90.5903 63.2873 92.1249 58.2767 89.5957C57.8033 89.3563 57.3538 89.0691 56.8724 88.843C55.6277 88.2579 54.657 88.5318 53.8857 89.6382C53.5586 90.109 53.2341 90.593 52.8538 91.0212C49.431 94.8483 45.2288 94.9201 41.6863 91.21C41.1969 90.6994 40.7714 90.1276 40.3193 89.5824C39.3672 88.4308 38.3645 88.2739 37.0427 88.9946C36.0746 89.5212 35.1065 90.101 34.0666 90.4334C30.1198 91.6914 26.7528 89.9068 25.2209 85.8217C24.9576 85.1196 24.7502 84.3935 24.5241 83.6781C24.08 82.2765 23.4629 81.867 21.9709 81.9361C20.8672 81.9893 19.7528 82.1143 18.6598 82.0239C14.2608 81.6595 11.9842 79.0957 12.0507 74.6648C12.0587 74.1808 12.1385 73.6968 12.197 73.2127C12.5108 70.5877 12.205 70.1329 9.69169 69.4787C9.22095 69.3563 8.75286 69.2234 8.29542 69.0611C3.98958 67.5346 2.31671 63.8404 4.03213 59.609C4.36458 58.7925 4.78213 58.008 5.18904 57.2234C6.00021 55.6569 5.83 54.8511 4.43638 53.8085C4.11724 53.5692 3.79543 53.3351 3.48692 53.0825C-1.04233 49.3617 -0.693922 43.6942 4.25819 40.516C5.87255 39.4814 6.0667 38.7048 5.1784 36.9947C4.77149 36.2102 4.3566 35.4256 4.02681 34.6064C2.31937 30.3804 4.01085 26.6623 8.31669 25.165C9.02414 24.9176 9.75286 24.7049 10.4869 24.5586C11.806 24.2953 12.3566 23.4868 12.2874 22.1969C12.2582 21.6676 12.181 21.1384 12.1332 20.6091C11.6092 14.79 14.7103 11.9389 20.2688 12.1118C20.4443 12.1171 20.6199 12.157 20.7954 12.181C23.6411 12.548 23.9496 12.3485 24.7927 9.65171C24.9762 9.06129 25.1651 8.46554 25.4204 7.90438C27.5081 3.3512 31.7874 2.03737 36.2475 4.78736C38.2741 6.03736 39.5134 5.98683 40.9097 3.90705C40.9842 3.798 41.0719 3.69694 41.157 3.59322C45.0054 -0.989219 50.1916 -0.755177 53.6091 4.15704C54.8405 5.92566 55.5905 6.10119 57.4815 5.08523C58.0639 4.7714 58.657 4.46555 59.266 4.21024C63.7474 2.3379 67.3511 3.90971 69.032 8.4682C69.2607 9.09054 69.4548 9.72618 69.641 10.3618C70.1277 12.024 70.6809 12.415 72.4256 12.2873C72.8219 12.2581 73.2181 12.1969 73.6117 12.1437C78.7288 11.4522 82.1862 14.4549 82.1889 19.9336ZM73.7208 77.7207C73.9415 77.734 74.1623 77.7446 74.3857 77.7579C77.6357 77.9813 78.0293 77.5771 77.7181 74.3324C77.2101 68.984 78.8963 66.484 84.0107 64.9973C84.1809 64.9468 84.3564 64.9229 84.524 64.867C86.6729 64.1542 87.141 62.8963 86.0133 60.9016C85.7314 60.4016 85.4575 59.8936 85.2181 59.3697C83.4681 55.5319 84.2154 52.4681 87.5319 49.8431C87.8085 49.6224 88.0931 49.4123 88.3803 49.2048C90.0612 47.9894 90.141 46.5639 88.5931 45.1702C87.9016 44.5479 87.1569 43.9814 86.5053 43.3192C84.5107 41.2846 83.7553 38.9123 84.7819 36.1543C85.1649 35.1224 85.6277 34.1144 86.1463 33.1437C87.0745 31.4096 86.6543 30.1596 84.8059 29.4761C83.8112 29.1091 82.7766 28.8432 81.8032 28.4256C79.1968 27.3059 77.7713 25.3086 77.6862 22.4575C77.6516 21.2687 77.7633 20.0692 77.8671 18.8804C78.016 17.1783 77.3298 16.3751 75.6171 16.3698C75.0878 16.3698 74.5532 16.5134 74.0293 16.4815C72.5798 16.3937 71.0665 16.4815 69.7022 16.0772C66.8485 15.2315 65.6038 12.8751 64.9389 10.1756C64.2713 7.47087 63.3299 7.02672 60.7634 8.22618C59.6836 8.7315 58.5799 9.19693 57.4549 9.59054C55.4655 10.2873 53.5825 10.0134 51.9868 8.61182C50.9602 7.71023 50.032 6.69161 49.1145 5.67566C47.8246 4.24747 46.4682 4.1996 45.1517 5.61183C44.5772 6.22619 44.0932 6.94161 43.4576 7.47884C42.6225 8.18629 41.7448 8.90703 40.7687 9.36714C38.0799 10.6358 35.6757 9.46288 33.3459 8.22352C31.2714 7.12246 30.064 7.55065 29.298 9.77671C29.1544 10.1943 29.0374 10.6225 28.8805 11.0373C27.1491 15.6384 25.4018 16.7794 20.4656 16.5267C20.1119 16.5081 19.7582 16.4655 19.4071 16.4256C17.0294 16.157 16.2555 17.0613 16.3832 19.4841C16.4736 21.1809 16.4949 22.9841 16.0268 24.5878C15.181 27.4894 12.713 28.6729 9.95765 29.3245C7.59063 29.883 7.08797 31.1703 8.14648 33.3219C8.87786 34.8112 9.60127 36.407 9.81137 38.024C10.213 41.1171 8.21297 43.1117 6.00021 44.8724C3.98958 46.4734 3.96564 47.7208 5.9417 49.3218C10.4576 52.9894 11.0108 55.9202 8.1385 60.9761C8.02946 61.1675 7.89382 61.3484 7.80606 61.5505C7.22627 62.851 7.7901 64.1835 9.14648 64.6622C9.68637 64.8537 10.2608 64.9441 10.814 65.1064C14.6757 66.226 16.5454 68.7048 16.5268 72.6968C16.5241 73.4494 16.4683 74.2021 16.3911 74.9494C16.1624 77.1063 17.0534 77.9973 19.2289 77.8138C20.1996 77.7313 21.1757 77.6914 22.1491 77.7021C25.4682 77.7366 27.3406 79.0611 28.4895 82.1436C28.8592 83.1382 29.1571 84.1648 29.5959 85.1249C30.2954 86.6622 31.4975 87.0159 32.9656 86.2154C33.5108 85.9201 34.048 85.6116 34.6065 85.343C38.2794 83.5717 41.0294 84.0904 43.8086 87.0797C44.29 87.5983 44.7235 88.1622 45.2129 88.6755C46.4788 90.0079 47.8698 89.9627 49.0852 88.5797C49.7581 87.8164 50.4177 87.0372 51.1331 86.3138C53.1065 84.3271 55.3964 83.718 58.04 84.8324C59.0586 85.2606 60.0772 85.6888 61.0772 86.1568C63.1703 87.1356 64.3511 86.585 64.8884 84.3483C66.0878 79.3537 68.5373 77.5132 73.7234 77.7154L73.7208 77.7207Z" fill="white"/>
<path d="M47.1251 76.9361C30.6863 76.9441 17.2874 63.5319 17.3007 47.0877C17.314 30.7154 30.7023 17.3378 47.0799 17.3298C63.524 17.3219 76.9203 30.7287 76.9043 47.1755C76.8883 63.5478 63.5001 76.9281 47.1251 76.9334V76.9361ZM72.633 47.1782C72.6543 33.117 61.1703 21.6091 47.1171 21.6038C33.1145 21.5984 21.6225 33.0319 21.5747 47.0186C21.5268 61.0851 32.9815 72.6276 47.0241 72.6648C61.0852 72.6994 72.6144 61.2287 72.6357 47.1808L72.633 47.1782Z" fill="white"/>
<path d="M42.8246 52.6543C47.7208 47.7527 52.4389 43.024 57.1623 38.3006C57.6304 37.8325 58.0852 37.3378 58.6091 36.9362C59.5612 36.2102 60.5373 36.3139 61.3644 37.1383C62.2022 37.9735 62.2049 38.9548 61.5506 39.9123C61.3033 40.274 60.9602 40.5692 60.6463 40.8804C55.4522 46.0772 50.2554 51.2713 45.0586 56.4654C43.2421 58.2819 42.4709 58.2819 40.6437 56.4628C38.1677 53.9947 35.689 51.5266 33.2235 49.0479C32.0294 47.8484 31.8884 46.633 32.8007 45.6702C33.7422 44.6809 35.04 44.8006 36.2741 46.0346C38.4283 48.1889 40.5613 50.3644 42.8272 52.6516L42.8246 52.6543Z" fill="white"/>
</svg>
