<svg width="105" height="61" viewBox="0 0 105 61" fill="none" xmlns="http://www.w3.org/2000/svg">
<path d="M68.8988 4.34822H67.178C51.9782 4.34822 36.7784 4.34822 21.5786 4.34822C21.2176 4.34822 20.8539 4.34822 20.4929 4.34822C18.4029 4.34551 17.3905 3.63981 17.3851 2.18225C17.377 0.719276 18.3894 0 20.4739 0C37.2588 0 54.041 0 70.8259 0C73.4045 0 74.1726 0.933701 73.6216 3.45795C72.9376 6.58476 72.2102 9.70343 71.4556 13.0311C72.0175 13.0311 72.4897 13.0311 72.9593 13.0311C76.9411 13.0311 80.9202 13.0067 84.902 13.0392C95.0696 13.1207 103.584 21.0327 104.162 31.1976C104.298 33.5752 103.581 36.0126 103.166 38.4066C102.493 42.2771 101.763 46.1368 101.016 49.991C100.704 51.6087 100.026 52.1217 98.4081 52.1434C97.4174 52.157 96.4267 52.1434 95.4794 52.1434C92.9253 58.3075 89.6194 60.8887 84.4677 60.81C79.6092 60.7367 76.154 57.9112 73.9772 52.1434C71.6836 52.1434 69.3385 52.1434 66.9934 52.1434C60.9325 52.1434 54.8689 52.1516 48.8079 52.1353C48.0832 52.1353 47.6082 52.1895 47.2988 53.0473C45.4504 58.1799 41.4985 60.9647 36.4635 60.8073C31.7543 60.658 27.9327 57.5448 26.3611 52.5723C26.334 52.4881 26.2905 52.4067 26.1793 52.1434C24.1056 52.1434 21.9505 52.138 19.7981 52.1434C18.6798 52.1488 17.8628 51.6901 17.4937 50.6153C16.9942 49.1659 18.0067 47.825 19.6705 47.7898C21.8365 47.7436 24.0051 47.7789 26.1413 47.7789C28.5162 41.7831 31.9145 39.0797 36.9793 39.0933C41.9843 39.1096 45.3961 41.8483 47.7087 47.7735C51.2399 47.7735 54.8091 47.7952 58.3757 47.7328C58.6634 47.7273 59.1058 47.1763 59.1954 46.8099C60.2132 42.6055 61.1876 38.3903 62.1539 34.1751C64.2982 24.8137 66.4288 15.4495 68.5622 6.08534C68.6817 5.56421 68.7685 5.03221 68.9015 4.3428L68.8988 4.34822ZM97.0265 47.7192C97.6481 44.3997 98.2995 41.1317 98.8587 37.8475C99.2577 35.4996 99.9471 33.1002 99.7869 30.7741C99.2902 23.5922 92.6322 17.5205 85.4204 17.401C80.8089 17.325 76.1974 17.401 71.5859 17.3603C70.7336 17.3522 70.4459 17.6318 70.2641 18.4569C68.8581 24.7892 67.3924 31.108 65.9484 37.4295C65.1694 40.8413 64.3959 44.2531 63.6087 47.7219H74.0152C75.9178 42.288 79.3595 39.2534 84.0307 39.134C90.0509 38.9793 93.6989 42.155 95.4496 47.7165H97.0265V47.7192ZM43.4174 49.9774C43.4229 46.3783 40.4779 43.4334 36.8815 43.447C33.3367 43.4605 30.4569 46.3593 30.4488 49.9232C30.4406 53.5657 33.3394 56.4672 36.9657 56.4428C40.5186 56.4211 43.412 53.5222 43.4174 49.9747V49.9774ZM84.6849 56.4455C88.2297 56.4563 91.1665 53.5792 91.2208 50.0426C91.2751 46.4706 88.3084 43.4578 84.7337 43.447C81.1509 43.4361 78.1788 46.4163 78.2005 49.9937C78.2222 53.525 81.1455 56.4346 84.6849 56.4455Z" fill="white"/>
<path d="M15.2056 34.7533C19.3638 34.7533 23.5247 34.7478 27.683 34.7533C29.4119 34.756 30.3945 35.5404 30.4108 36.8948C30.4271 38.2411 29.4065 39.1069 27.7454 39.1096C19.3828 39.1178 11.0175 39.1178 2.65488 39.1096C0.982903 39.1096 -0.0213689 38.2465 0.000345092 36.8894C0.0220591 35.516 0.980188 34.756 2.72816 34.7533C6.88639 34.7478 11.0473 34.7533 15.2056 34.7533Z" fill="white"/>
<path d="M17.2304 26.0839C13.8403 26.0839 10.4502 26.0893 7.06008 26.0839C5.35553 26.0785 4.37026 25.2805 4.35126 23.9261C4.33226 22.5473 5.30124 21.7276 7.01122 21.7276C13.9271 21.7221 20.843 21.7194 27.7589 21.7276C29.4445 21.7276 30.4433 22.5825 30.4135 23.9424C30.3836 25.2398 29.3929 26.0758 27.8105 26.0812C24.2847 26.0948 20.7589 26.0839 17.2331 26.0866L17.2304 26.0839Z" fill="white"/>
<path d="M19.5239 8.68823C22.2816 8.68823 25.0393 8.68009 27.7969 8.69095C29.4173 8.69909 30.3836 9.49708 30.4107 10.8108C30.4406 12.1625 29.4255 13.0446 27.7671 13.0473C22.2979 13.0582 16.8287 13.0555 11.3567 13.0473C9.68747 13.0473 8.67234 12.1923 8.67505 10.8515C8.67777 9.49708 9.67118 8.69638 11.3866 8.69095C14.0981 8.68281 16.8124 8.69095 19.5239 8.69095V8.68823Z" fill="white"/>
</svg>
