<svg width="87" height="87" viewBox="0 0 87 87" fill="none" xmlns="http://www.w3.org/2000/svg">
<path d="M87 43.5623C86.9751 67.5383 67.4341 87.0249 43.4377 87C19.4617 86.9773 -0.0248922 67.4341 2.38671e-05 43.4377C0.0249399 19.4617 19.5659 -0.0248922 43.5623 2.38671e-05C67.5383 0.0249399 87.0249 19.5659 87 43.5623ZM43.5193 3.80991C21.6339 3.78952 3.85295 21.5411 3.80764 43.4536C3.76234 65.3298 21.5048 83.1289 43.4219 83.1924C65.3344 83.258 83.1969 65.4272 83.1878 43.4921C83.181 21.5932 65.4227 3.8303 43.517 3.80991H43.5193Z" fill="white"/>
<path d="M44.066 15.3055C34.8171 15.4816 27.592 18.7185 21.8367 25.1246C21.6604 25.3209 21.4933 25.5286 21.3124 25.7205C20.3646 26.7362 19.2818 26.8897 18.405 26.1336C17.5511 25.3977 17.5121 24.2578 18.4462 23.2352C19.6412 21.9238 20.8408 20.5943 22.1869 19.4431C28.6932 13.8699 36.3166 11.1838 44.8993 11.5788C54.487 12.019 62.4172 15.994 68.6007 23.2668C69.4867 24.3074 69.4432 25.4496 68.5664 26.1697C67.6621 26.9146 66.5838 26.7633 65.6749 25.6956C61.1146 20.3369 55.3753 16.9646 48.3791 15.7525C46.772 15.4748 45.126 15.4116 44.066 15.3055Z" fill="white"/>
<path d="M43.3617 75.4591C34.471 75.2884 26.7207 72.0779 20.3389 65.6501C19.3741 64.6802 19.2692 63.544 20.0447 62.7288C20.8156 61.916 21.988 61.9274 22.971 62.8973C25.4503 65.3428 28.1804 67.4193 31.3599 68.8811C38.5788 72.1986 45.9277 72.4923 53.3929 69.8192C57.2019 68.4553 60.5296 66.3082 63.4035 63.462C63.7 63.1683 64.0033 62.8768 64.3364 62.6287C65.1985 61.982 66.2568 62.0207 66.9251 62.697C67.6367 63.4165 67.6709 64.5481 66.9069 65.3701C66.1587 66.1738 65.3559 66.9389 64.5188 67.6493C58.4655 72.7815 51.4359 75.3203 43.3617 75.4546V75.4591Z" fill="white"/>
<path d="M36.6829 45.5337C38.182 47.0228 39.5663 48.3025 40.8221 49.7008C41.2606 50.1894 41.6417 50.9968 41.5912 51.618C41.458 53.2235 39.626 53.7912 38.384 52.6511C37.2247 51.5855 36.1526 50.4221 35.0392 49.3053C34.7774 49.0447 34.5043 48.7957 34.0107 48.3304C34.0107 49.4402 34.0313 50.2732 34.0061 51.1038C33.9625 52.4626 33.2393 53.27 32.1052 53.2653C30.9964 53.2607 30.209 52.4417 30.1998 51.0992C30.1722 46.0619 30.186 41.0245 30.1975 35.9872C30.1975 35.0635 30.5326 34.2003 31.49 34.0374C33.7604 33.6535 36.086 33.5093 38.2692 34.3748C40.4479 35.238 41.8827 37.7462 41.7105 39.9403C41.5085 42.502 39.9681 44.4867 37.5851 45.2568C37.3693 45.3266 37.1535 45.3894 36.6852 45.5337H36.6829ZM34.0635 41.6388C35.4042 41.6272 36.7954 41.9948 37.5139 40.6104C37.7848 40.0869 37.7183 39.1073 37.4015 38.5955C36.6117 37.3297 35.294 37.7765 34.0658 37.823V41.6388H34.0635Z" fill="white"/>
<path d="M49.2392 37.6766V41.5375C49.6666 41.5584 50.0711 41.5887 50.4755 41.5957C52.1392 41.6213 52.9688 42.2361 52.9941 43.4749C53.0193 44.7487 52.1645 45.3937 50.4227 45.4147C50.0803 45.4193 49.7379 45.4147 49.2921 45.4147V49.3338C49.7241 49.3338 50.1998 49.3338 50.6754 49.3338C52.13 49.3408 53.5846 49.2989 55.0369 49.3734C56.0894 49.4293 56.7811 50.1861 56.8064 51.1641C56.8339 52.2423 56.3192 52.9199 55.2621 53.1388C55.0025 53.1924 54.7359 53.2482 54.4717 53.2506C52.2151 53.2599 49.9562 53.2808 47.6996 53.2459C46.0542 53.2203 45.3028 52.4658 45.2936 50.8055C45.2706 45.92 45.2683 41.0345 45.2936 36.149C45.3028 34.5585 46.0588 33.7947 47.6352 33.7645C49.9309 33.7225 52.2265 33.7272 54.5222 33.7645C55.9952 33.7877 56.8454 34.5795 56.8156 35.7834C56.7857 36.957 55.963 37.6556 54.5268 37.6719C52.8079 37.6929 51.0891 37.6766 49.2415 37.6766H49.2392Z" fill="white"/>
<path d="M64.3233 37.6787V41.5114C65.8039 41.7932 68.0363 41.0318 68.0156 43.5326C67.9948 45.945 65.8524 45.2534 64.3464 45.4839V49.333C65.97 49.333 67.5705 49.326 69.171 49.3376C69.6299 49.3423 70.1073 49.3307 70.5408 49.4564C71.4034 49.7032 71.8992 50.3156 71.9061 51.247C71.913 52.1621 71.491 52.8071 70.6031 53.0726C70.2756 53.1704 69.9274 53.2449 69.5884 53.2472C67.3214 53.2612 65.0521 53.2798 62.7851 53.2472C61.1085 53.224 60.389 52.4951 60.3821 50.8116C60.3636 45.9217 60.3613 41.0318 60.3821 36.1419C60.389 34.5259 61.1131 33.7924 62.7228 33.7644C65.029 33.7248 67.3352 33.7248 69.6414 33.7644C71.1382 33.79 71.9545 34.5794 71.9061 35.8159C71.86 36.9848 71.039 37.6577 69.5769 37.6717C67.8564 37.688 66.136 37.6764 64.321 37.6764L64.3233 37.6787Z" fill="white"/>
<path d="M18.9837 37.6842V41.5297C20.4925 41.8147 22.5675 41.0391 22.7431 43.5575C22.8332 44.8378 22.0776 45.2046 18.9074 45.548C18.9074 46.7092 18.9167 47.9007 18.9051 49.0898C18.8959 49.9449 18.9051 50.8023 18.8266 51.6527C18.7295 52.7344 17.9693 53.1806 17.0127 53.26C16.0676 53.3371 15.252 52.5662 15.118 51.5826C15.0972 51.4284 15.0948 51.2719 15.0948 51.1177C15.0948 46.062 15.0856 41.0064 15.0995 35.9507C15.1041 34.619 15.7095 33.8434 17.015 33.799C19.5498 33.7102 22.0915 33.7196 24.6286 33.7896C25.8648 33.8247 26.6597 34.7265 26.6319 35.7731C26.6019 36.8899 25.7516 37.6608 24.4322 37.6819C22.6669 37.7099 20.8992 37.6889 18.9837 37.6889V37.6842Z" fill="white"/>
</svg>
