<svg width="92" height="92" viewBox="0 0 92 92" fill="none" xmlns="http://www.w3.org/2000/svg">
<path d="M72.1107 0.626435C72.8502 0.626435 73.5898 0.621505 74.3293 0.626435C76.962 0.646156 78.4534 2.26079 78.1995 4.89351C77.9579 7.38572 77.6621 9.87053 77.3638 12.3553C77.2184 13.5657 77.4254 14.6824 78.2907 15.5526C81.6974 18.984 82.7821 23.2856 82.9127 27.9175C83.0606 33.2248 81.1773 38.0095 78.6703 42.5182C70.856 56.5692 59.4771 66.5602 44.1985 71.7862C33.6602 75.3927 22.9346 75.5208 12.2114 72.4518C9.49491 71.6728 6.81289 70.7706 4.1432 69.8462C-0.313687 68.3031 -0.629218 63.2792 0.664955 60.5208C1.40941 58.9332 2.86382 58.2282 4.59677 57.8979C10.9148 56.6925 17.2698 55.6177 23.5114 54.0869C30.3816 52.4032 37.03 50.0022 42.8082 45.7253C49.4097 40.8419 54.4458 34.556 58.846 27.6956C61.215 24.0004 63.4089 20.1426 66.1945 16.7851C68.8198 13.6199 68.344 10.5041 67.4418 7.10223C67.1189 5.88694 66.759 4.647 66.6949 3.40213C66.6012 1.59522 67.5725 0.700388 69.404 0.63383C70.3062 0.601784 71.2109 0.6289 72.1156 0.62397L72.1107 0.626435ZM5.66662 67.3934C8.83673 68.3178 11.7973 69.2669 14.8023 70.0385C24.6256 72.5652 34.3381 72.05 43.878 68.6802C55.2963 64.6449 64.4393 57.4986 71.6719 47.8822C75.6235 42.6291 78.9957 37.0063 79.7944 30.3185C80.3441 25.7063 79.6046 21.3012 76.2249 17.7169C74.7262 16.1269 74.137 14.2288 74.3958 12.0571C74.6818 9.6536 74.9455 7.24521 75.2118 4.83928C75.2783 4.24519 75.3375 3.61166 74.4698 3.59934C72.8749 3.57715 71.2775 3.59194 69.5544 3.59194C69.69 4.23286 69.6974 4.7949 69.9217 5.25095C71.1247 7.70618 71.1468 10.3216 71.0951 12.9618C71.0606 14.7169 70.4887 16.2379 69.335 17.5715C68.4771 18.5624 67.6144 19.5657 66.8896 20.6553C63.9611 25.0654 61.2051 29.5962 58.1657 33.9274C53.5732 40.4697 48.1673 46.2676 41.1984 50.3375C33.6725 54.7352 25.3454 56.9809 16.8976 58.7878C13.6165 59.4904 10.3059 60.045 7.01256 60.6637C7.00024 61.7508 7.57954 61.9973 8.57297 62.0393C17.0455 62.3893 25.269 61.1913 33.2239 58.2134C34.3677 57.7845 35.1491 58.0655 35.4918 58.9653C35.8172 59.8182 35.3586 60.5947 34.2543 61.0039C26.2723 63.9744 18.0315 65.3795 9.51463 65.0171C8.1613 64.9604 6.90657 64.8026 6.40862 66.4764C6.33466 66.7279 6.05857 66.9177 5.66416 67.3934H5.66662ZM3.00926 64.8988C3.19907 64.9702 3.38888 65.0442 3.58116 65.1157C3.87697 64.6325 4.28617 64.1814 4.43901 63.6564C4.68305 62.8207 4.41929 62.0738 3.29767 61.3293C3.18674 62.69 3.098 63.7944 3.00926 64.8988Z" fill="white"/>
<path d="M72.6949 21.0891C72.4361 21.9075 72.2783 22.5016 72.0614 23.0735C67.6439 34.7285 60.5272 44.3867 50.625 51.9669C49.1287 53.1131 47.5387 54.1435 45.9659 55.1863C44.8098 55.9529 43.8977 55.8592 43.4072 55.0112C42.9265 54.1805 43.2297 53.4188 44.3562 52.7039C53.5313 46.874 60.7269 39.1854 65.8272 29.5888C67.1509 27.0965 68.1616 24.4392 69.3128 21.8558C69.5125 21.4071 69.5766 20.8056 69.9143 20.5345C70.3358 20.1943 71.0211 19.8886 71.4994 19.9946C71.9726 20.0982 72.3301 20.7341 72.6925 21.0916L72.6949 21.0891Z" fill="white"/>
<path d="M35.2527 36.0645C35.2527 37.053 35.2576 38.0292 35.2527 39.0054C35.2453 40.0234 34.6142 40.7309 33.707 40.7433C32.7777 40.7556 32.1245 40.0358 32.1195 38.9807C32.1146 38.0243 32.1195 37.0703 32.1195 36.2272C30.9289 35.8451 29.7308 35.6307 28.6955 35.0982C25.8483 33.629 24.4038 31.2034 24.2855 27.9987C24.2682 27.5649 24.2731 27.1286 24.2855 26.6922C24.3101 25.7382 24.9855 25.0554 25.8804 25.0727C26.7432 25.0899 27.3594 25.7678 27.426 26.6873C27.4975 27.6783 27.4506 28.7259 27.7662 29.6429C28.4194 31.5534 29.8911 32.675 31.9001 32.8525C33.2313 32.9708 34.6068 32.9462 35.9306 32.7588C38.1196 32.4507 39.675 30.6487 39.9363 28.3784C40.173 26.3249 38.9084 24.1852 36.9092 23.3644C34.3184 22.297 31.6931 21.3134 29.117 20.214C25.7374 18.7719 23.8984 15.2887 24.3397 11.9387C24.8549 8.03642 27.638 5.26073 31.3036 4.80962C31.5599 4.77757 31.8139 4.7258 32.1171 4.6765C32.1171 3.688 32.1121 2.71182 32.1171 1.73565C32.122 0.710171 32.7481 0.01255 33.6602 0.000224505C34.5945 -0.014566 35.2453 0.702776 35.2502 1.7603C35.2551 2.71676 35.2502 3.67075 35.2502 4.51627C36.4384 4.8959 37.6364 5.11282 38.6717 5.64528C41.5214 7.11201 42.961 9.54013 43.0842 12.7447C43.1015 13.1786 43.0966 13.6149 43.0842 14.0512C43.0596 15.0003 42.3768 15.6905 41.4893 15.6733C40.6315 15.656 40.0103 14.9707 39.9437 14.0562C39.8722 13.0652 39.9166 12.0175 39.6035 11.1005C38.9601 9.21474 37.5181 8.08819 35.5337 7.90084C34.1803 7.77512 32.7851 7.79731 31.4392 7.98466C29.2304 8.29279 27.6355 10.1638 27.426 12.4292C27.2312 14.5171 28.5131 16.5952 30.5172 17.4062C33.0932 18.4514 35.684 19.4597 38.2502 20.5246C41.4154 21.8385 43.5033 25.4474 43.0522 28.7432C42.5222 32.6306 39.7416 35.4901 36.0637 35.9363C35.8073 35.9684 35.5534 36.0201 35.2477 36.0694L35.2527 36.0645Z" fill="white"/>
<path d="M83.6744 87.3211C83.6744 88.3096 83.6793 89.2858 83.6744 90.262C83.667 91.28 83.0359 91.9875 82.1288 91.9998C81.1995 92.0122 80.5462 91.2924 80.5413 90.2373C80.5363 89.2809 80.5413 88.3269 80.5413 87.4838C79.3506 87.1017 78.1526 86.8872 77.1173 86.3548C74.2701 84.8856 72.8255 82.4599 72.7072 79.2553C72.69 78.8215 72.6949 78.3851 72.7072 77.9488C72.7319 76.9948 73.4073 76.312 74.3021 76.3293C75.1649 76.3465 75.7812 77.0244 75.8477 77.9439C75.9192 78.9349 75.8724 79.9825 76.1879 80.8995C76.8412 82.81 78.3128 83.9316 80.3219 84.1091C81.653 84.2274 83.0286 84.2028 84.3523 84.0154C86.5413 83.7073 88.0968 81.9053 88.3581 79.6349C88.5947 77.5815 87.3301 75.4418 85.331 74.621C82.7401 73.5536 80.1148 72.57 77.5388 71.4706C74.1592 70.0285 72.3202 66.5453 72.7614 63.1953C73.2767 59.293 76.0597 56.5173 79.7253 56.0662C79.9817 56.0342 80.2356 55.9824 80.5388 55.9331C80.5388 54.9446 80.5339 53.9684 80.5388 52.9922C80.5437 51.9668 81.1699 51.2691 82.082 51.2568C83.0162 51.242 83.667 51.9594 83.6719 53.0169C83.6769 53.9733 83.6719 54.9273 83.6719 55.7729C84.8601 56.1525 86.0582 56.3694 87.0935 56.9019C89.9431 58.3686 91.3827 60.7967 91.506 64.0013C91.5233 64.4352 91.5183 64.8715 91.506 65.3078C91.4814 66.2569 90.7985 66.9471 89.9111 66.9299C89.0532 66.9126 88.432 66.2273 88.3655 65.3128C88.294 64.3218 88.3384 63.2741 88.0253 62.3571C87.3819 60.4713 85.9398 59.3448 83.9554 59.1574C82.6021 59.0317 81.2069 59.0539 79.8609 59.2412C77.6522 59.5494 76.0573 61.4204 75.8477 63.6858C75.653 65.7737 76.9348 67.8518 78.939 68.6628C81.515 69.708 84.1058 70.7162 86.672 71.7812C89.8371 73.0951 91.9251 76.704 91.474 79.9998C90.944 83.8872 88.1633 86.7467 84.4854 87.1929C84.2291 87.225 83.9751 87.2767 83.6695 87.326L83.6744 87.3211Z" fill="white"/>
</svg>
