<svg width="273" height="61" viewBox="0 0 273 61" fill="none" xmlns="http://www.w3.org/2000/svg">
<path d="M34.41 51.6328C34.0493 52.0146 33.8215 52.2297 33.6233 52.4701C30.8962 55.7287 27.3593 57.7408 23.3773 59.0062C20.3486 59.968 17.244 60.567 14.0382 60.5185C12.1484 60.491 10.767 59.5884 10.2734 57.745C9.71662 55.676 9.31589 53.5648 8.87509 51.4641C8.17487 48.1296 7.49363 44.7888 6.81661 41.4501C6.11217 37.9806 5.43093 34.5069 4.72016 31.0374C3.90183 27.0428 3.05819 23.0524 2.23564 19.0598C1.61345 16.0375 0.98705 13.0152 0.398611 9.98649C0.198246 8.9678 -0.0421914 7.91746 0.00631799 6.89455C0.0949003 5.03221 1.25912 3.89751 3.00335 3.44617C8.40476 2.04572 13.8673 1.17466 19.4818 1.40456C24.5204 1.61125 28.707 3.63177 32.2587 7.09702C33.3639 8.17688 34.3762 9.35165 35.5362 10.5981C35.5848 10.2311 35.6417 9.96118 35.6501 9.68911C35.6818 8.69572 35.6965 7.70023 35.7176 6.70684C35.7704 4.18857 37.2214 2.66369 39.6975 2.40427C42.6334 2.09634 45.5608 1.71459 48.4946 1.37292C49.9266 1.2063 51.3651 0.873063 52.7782 1.52056C52.911 1.58172 53.2084 1.46994 53.3286 1.34339C54.7544 -0.160397 56.4543 -0.236325 58.3082 0.312042C63.195 1.75678 68.0902 3.1762 72.977 4.62094C75.3097 5.31061 76.552 6.7448 76.3389 8.79485C76.244 9.70387 75.8159 10.6741 75.2759 11.4291C71.1548 17.1933 66.9766 22.9153 62.7901 28.6331C62.3704 29.2067 62.4146 29.6454 62.75 30.2107C65.1059 34.18 67.4406 38.162 69.7817 42.1419C70.9122 44.0611 72.0511 45.9762 73.1711 47.9018C74.4407 50.0868 73.4516 53.1535 70.9523 53.7841C67.8329 54.5708 64.7136 55.368 61.5921 56.1526C60.16 56.5112 58.7237 56.8486 57.2916 57.2008C55.5558 57.6269 53.9382 57.5847 52.5989 56.1653C52.447 56.005 52.0843 55.9438 51.8438 55.9839C50.7197 56.1737 49.6082 56.5744 48.484 56.6061C45.3162 56.6968 42.142 56.6462 38.972 56.6419C36.0677 56.6398 34.6082 55.2415 34.4669 52.3457C34.4585 52.1896 34.4395 52.0335 34.4037 51.6391L34.41 51.6328ZM38.2422 22.3353C38.1558 22.35 38.0672 22.3627 37.9807 22.3775C37.8731 22.194 37.7213 22.0231 37.6664 21.8249C36.3103 17.0288 33.7583 12.9477 30.1918 9.50983C27.3825 6.80175 24.1745 4.92887 20.1419 4.5893C14.7827 4.13795 9.59008 4.92887 4.4523 6.304C2.99702 6.69418 2.86837 6.99157 3.16575 8.45107C4.38481 14.4198 5.6102 20.3865 6.83981 26.3531C7.77836 30.9003 8.73589 35.4412 9.67233 39.9885C10.7986 45.4553 11.908 50.9263 13.0321 56.3931C13.2641 57.5193 13.5257 57.7893 14.6857 57.6627C16.7357 57.435 18.7963 57.203 20.8084 56.7643C26.233 55.5874 30.4596 52.5988 33.5242 47.9756C35.1672 45.4953 36.2997 42.7788 37.1856 39.9484C37.2952 39.5962 37.4787 39.2693 37.6306 38.9297C37.8394 39.1933 37.8668 39.3937 37.8605 39.592C37.8035 42.0638 37.736 44.5336 37.6854 47.0054C37.6475 48.8868 37.6179 50.766 37.6053 52.6473C37.6011 53.3939 37.9744 53.7525 38.7632 53.7482C42.3107 53.725 45.8582 53.7398 49.4057 53.725C50.5805 53.7208 50.8694 53.4192 50.8926 52.2297C50.9221 50.6711 50.9137 49.1124 50.9559 47.5538C50.9664 47.1278 51.0951 46.7038 51.1689 46.2778C51.2512 46.2715 51.3334 46.2652 51.4136 46.2567C51.6772 46.8304 51.9535 47.3999 52.2003 47.9799C52.9891 49.8316 53.7568 51.6919 54.5498 53.5416C54.9674 54.516 55.3913 54.7796 56.1844 54.5835C60.5861 53.4952 64.9899 52.4026 69.3894 51.3038C70.8869 50.9305 71.1316 50.4116 70.3702 49.0913C68.491 45.837 66.5864 42.5974 64.6819 39.3578C62.885 36.3039 61.0796 33.2562 59.2636 30.2128C58.9241 29.6412 58.8967 29.1667 59.3311 28.5993C60.3119 27.3212 61.2251 25.9925 62.17 24.689C65.8061 19.6673 69.4464 14.6497 73.0783 9.62373C73.7764 8.65776 73.538 7.98706 72.3759 7.64539C67.3563 6.17113 62.3366 4.7053 57.3127 3.25002C56.1675 2.91889 55.8047 3.08762 55.404 4.19701C54.5751 6.49382 53.7905 8.8075 52.9785 11.1106C52.717 11.8509 52.4302 12.5807 52.156 13.3147C52.0611 13.3062 51.9683 13.2957 51.8733 13.2872C51.8354 12.916 51.7573 12.5448 51.7679 12.1757C51.8417 10.0013 51.9429 7.82677 52.021 5.65229C52.059 4.57243 51.5781 4.15061 50.4877 4.27926C47.3409 4.65046 44.1983 5.04698 41.0473 5.38865C38.9171 5.62065 38.7779 5.73665 38.7273 7.89637C38.6303 12.0344 38.5375 16.1725 38.4257 20.3105C38.4067 20.9876 38.3055 21.6604 38.2422 22.3353Z" fill="white"/>
<path d="M70.6908 9.47397C67.6115 13.7217 64.6356 17.8281 61.6596 21.9345C60.1326 24.0415 58.6162 26.157 57.0765 28.2534C56.5514 28.9684 56.5324 29.5969 57.0027 30.3857C60.4912 36.2427 63.9353 42.1229 67.3964 47.9967C68.2717 49.4815 68.2548 49.4921 66.557 49.9054C63.5325 50.6394 60.5165 51.3966 57.4963 52.1474C56.3869 52.4237 56.2814 52.3794 55.849 51.3607C54.2778 47.655 52.7149 43.9472 51.131 40.2479C50.9981 39.9378 50.7935 39.6173 50.5362 39.4084C49.9668 38.9487 49.1948 39.2524 49.0683 39.9927C48.9692 40.5706 48.9586 41.1695 48.9481 41.758C48.9017 44.7677 48.8553 47.7774 48.8447 50.7871C48.8426 51.3607 48.6823 51.6265 48.0854 51.6328C45.5862 51.656 43.089 51.694 40.5897 51.7361C39.8789 51.7488 39.5794 51.443 39.6005 50.7153C39.706 47.2501 39.7798 43.7848 39.8747 40.3196C40.0076 35.5108 40.1552 30.7042 40.2923 25.8954C40.4589 20.0131 40.6255 14.1288 40.7816 8.24647C40.7943 7.76349 40.9609 7.49563 41.4629 7.43658C43.9411 7.1413 46.4214 6.85235 48.8953 6.51701C49.7284 6.40312 49.9183 6.73424 49.8845 7.48719C49.7073 11.6485 49.5576 15.8118 49.4015 19.9731C49.3825 20.4561 49.4078 20.9412 49.3741 21.4241C49.3298 22.0463 49.5386 22.4998 50.1713 22.6284C50.8315 22.7634 51.1668 22.3205 51.3672 21.7869C51.8101 20.6079 52.234 19.4184 52.6495 18.2288C54.0479 14.2279 55.4525 10.229 56.8213 6.21751C57.066 5.50042 57.4731 5.41184 58.1016 5.59744C61.9612 6.72792 65.8272 7.84785 69.6848 8.98677C70.0032 9.07957 70.2901 9.27782 70.6866 9.47397H70.6908Z" fill="white"/>
<path d="M17.0964 6.45797C20.3887 6.34197 23.7801 6.97892 26.6865 9.21457C31.3033 12.7621 34.623 17.246 35.7978 23.0229C37.4281 31.0353 36.4348 38.7209 32.3642 45.9108C29.5253 50.9263 25.1869 53.8389 19.5894 54.9462C18.3534 55.1909 17.1006 55.3491 15.8563 55.5431C15.2636 55.6359 14.9219 55.463 14.7912 54.7965C14.2154 51.8754 13.589 48.9648 12.9858 46.0479C12.0578 41.5555 11.1298 37.0631 10.2102 32.5686C9.25898 27.916 8.32676 23.2591 7.37345 18.6064C6.78712 15.7422 6.17548 12.8823 5.57227 10.0202C5.53431 9.83675 5.4858 9.65326 5.44995 9.46977C5.22216 8.27602 5.27911 8.1558 6.46021 7.85631C9.85586 7.00001 13.2958 6.45586 17.0964 6.45375V6.45797ZM20.8316 19.9246C19.6147 20.222 18.3808 20.4687 17.1829 20.8336C15.9237 21.2175 15.7529 21.595 16.0018 22.8668C16.5649 25.7331 17.1217 28.6014 17.687 31.4698C18.1531 33.8383 18.6297 36.2026 19.0958 38.5712C19.2393 39.3051 19.6147 39.6805 20.4182 39.67C22.6476 39.6405 24.5436 38.8664 26.1318 37.2994C27.7769 35.6775 28.4054 33.6232 28.5805 31.415C28.7914 28.7533 28.5636 26.1422 27.0324 23.8349C25.5708 21.633 23.7063 20.0448 20.8316 19.9267V19.9246Z" fill="white"/>
<path d="M26.7244 30.0588C26.6041 32.0603 26.2456 33.9227 24.9844 35.5235C24.147 36.5886 22.9955 37.1201 21.7406 37.4786C21.1964 37.6347 20.9518 37.3732 20.8526 36.8564C20.5257 35.146 20.1819 33.4397 19.8487 31.7313C19.3193 29.0253 18.7984 26.3173 18.2648 23.6113C18.1256 22.9068 18.3322 22.5525 19.0852 22.3585C22.6032 21.4537 24.706 23.0967 26.0642 26.6062C26.4797 27.6797 26.5135 28.903 26.7244 30.0567V30.0588ZM22.6875 33.5768C22.7867 33.6042 22.8879 33.6316 22.987 33.659C23.2254 33.3617 23.5333 33.0959 23.6915 32.7606C24.6195 30.7864 23.9889 27.2727 22.4239 25.7541C22.1835 25.52 21.7806 25.4546 21.4537 25.3133C21.4031 25.6339 21.266 25.9693 21.3187 26.273C21.633 28.1227 21.9894 29.9639 22.3374 31.8073C22.4492 32.3999 22.5715 32.9884 22.6896 33.5789L22.6875 33.5768Z" fill="white"/>
<path d="M85.5177 50.2239C84.5096 50.2239 84.0055 49.7198 84.0055 48.7117V12.4204C84.0055 11.4122 84.5096 10.9082 85.5177 10.9082H96.1033C99.4504 10.9082 102.304 12.0175 104.662 14.2342C107.022 16.453 108.201 19.1231 108.201 22.2488C108.201 25.3745 107.022 28.0467 104.662 30.2634C104.561 30.3646 104.451 30.4659 104.329 30.565C104.449 30.6662 104.561 30.7675 104.662 30.8666C107.022 33.0854 108.201 35.7555 108.201 38.8812C108.201 42.0069 107.022 44.6791 104.662 46.8958C102.304 49.1145 99.4504 50.2218 96.1033 50.2218H85.5177V50.2239ZM96.1033 18.4672H91.5666V27.5405H96.1033C97.354 27.5405 98.4212 27.0976 99.3091 26.2097C100.197 25.3218 100.64 24.2546 100.64 23.0039C100.64 21.7532 100.197 20.686 99.3091 19.798C98.4212 18.9101 97.354 18.4672 96.1033 18.4672ZM96.1033 42.6628C97.354 42.6628 98.4212 42.2199 99.3091 41.3319C100.197 40.444 100.64 39.3768 100.64 38.1261C100.64 36.8754 100.197 35.8082 99.3091 34.9203C98.4212 34.0323 97.354 33.5894 96.1033 33.5894H91.5666V42.6628H96.1033Z" fill="white"/>
<path d="M119.845 47.1995L119.544 48.7117C119.019 49.7199 118.515 50.224 118.032 50.224H111.983C111.479 50.224 111.228 49.7199 111.228 48.7117L118.032 12.4204C118.536 11.4123 119.282 10.8976 120.269 10.8787H125.532C126.58 10.8998 127.356 11.4123 127.86 12.4204L134.664 48.7117C134.664 49.7199 134.331 50.224 133.666 50.224H127.86C127.356 50.224 126.852 49.7199 126.348 48.7117L126.046 47.1995H119.845ZM124.625 39.6384L122.992 31.1703L121.328 39.6384H124.625Z" fill="white"/>
<path d="M154.323 31.5647V12.4204C154.323 11.4122 154.827 10.9082 155.835 10.9082H160.372C161.38 10.9082 161.884 11.4122 161.884 12.4204V48.7117C161.884 49.7198 161.391 50.2239 160.401 50.2239H155.804C154.814 50.2239 153.817 49.7198 152.809 48.7117L145.248 29.5969V48.7117C145.248 49.7198 144.743 50.2239 143.735 50.2239H139.199C138.19 50.2239 137.686 49.7198 137.686 48.7117V12.4204C137.686 11.4122 138.19 10.9082 139.199 10.9082H144.49C145.499 10.9082 146.245 11.4228 146.728 12.4499L154.319 31.5647H154.323Z" fill="white"/>
<path d="M173.528 47.1995L173.227 48.7117C172.702 49.7199 172.198 50.224 171.715 50.224H165.666C165.162 50.224 164.911 49.7199 164.911 48.7117L171.715 12.4204C172.219 11.4123 172.965 10.8976 173.952 10.8787H179.215C180.263 10.8998 181.039 11.4123 181.543 12.4204L188.347 48.7117C188.347 49.7199 188.014 50.224 187.349 50.224H181.543C181.039 50.224 180.535 49.7199 180.031 48.7117L179.729 47.1995H173.528ZM178.308 39.6384L176.675 31.1703L175.011 39.6384H178.308Z" fill="white"/>
<path d="M208.006 31.5647V12.4204C208.006 11.4122 208.51 10.9082 209.518 10.9082H214.055C215.063 10.9082 215.567 11.4122 215.567 12.4204V48.7117C215.567 49.7198 215.074 50.2239 214.084 50.2239H209.487C208.497 50.2239 207.5 49.7198 206.492 48.7117L198.931 29.5969V48.7117C198.931 49.7198 198.426 50.2239 197.418 50.2239H192.882C191.873 50.2239 191.369 49.7198 191.369 48.7117V12.4204C191.369 11.4122 191.873 10.9082 192.882 10.9082H198.173C199.181 10.9082 199.928 11.4228 200.411 12.4499L208.002 31.5647H208.006Z" fill="white"/>
<path d="M227.209 47.1995L226.908 48.7117C226.383 49.7199 225.879 50.224 225.396 50.224H219.347C218.843 50.224 218.592 49.7199 218.592 48.7117L225.396 12.4204C225.9 11.4123 226.646 10.8976 227.633 10.8787H232.895C233.944 10.8998 234.72 11.4123 235.224 12.4204L242.028 48.7117C242.028 49.7199 241.695 50.224 241.03 50.224H235.224C234.72 50.224 234.216 49.7199 233.712 48.7117L233.41 47.1995H227.209ZM231.989 39.6384L230.356 31.1703L228.692 39.6384H231.989Z" fill="white"/>
<path d="M241.969 19.9815C240.94 19.9625 240.064 19.5175 239.337 18.6507C238.59 17.7627 238.217 16.6955 238.217 15.4448C238.217 14.1941 238.584 13.1269 239.32 12.239C240.056 11.3511 240.948 10.9082 241.996 10.9082C243.044 10.9082 243.937 11.3511 244.673 12.239C245.409 13.1269 245.776 14.1941 245.776 15.4448V18.4693C245.776 19.72 245.373 21.0403 244.565 22.4302C243.759 23.8222 242.397 24.5161 240.482 24.5161C239.474 24.5161 238.97 24.012 238.97 23.0039C240.482 23.0039 241.479 21.9957 241.965 19.9794L241.969 19.9815Z" fill="white"/>
<path d="M260.902 42.6628C262.153 42.6628 263.22 42.2199 264.108 41.3319C264.996 40.444 265.439 39.3768 265.439 38.1261C265.439 36.8754 264.996 35.8082 264.108 34.9203C263.22 34.0323 262.153 33.5894 260.902 33.5894C257.555 33.5894 254.701 32.4801 252.343 30.2634C249.983 28.0467 248.804 25.3745 248.804 22.2488C248.804 19.1231 249.983 16.453 252.343 14.2342C254.704 12.0175 257.555 10.9082 260.902 10.9082H269.976C270.984 10.9082 271.488 11.4122 271.488 12.4204V16.9571C271.488 17.9652 270.984 18.4693 269.976 18.4693H260.902C259.652 18.4693 258.584 18.9122 257.696 19.8001C256.808 20.6881 256.366 21.7553 256.366 23.006C256.366 24.2567 256.808 25.3239 257.696 26.2118C258.584 27.0997 259.652 27.5426 260.902 27.5426C264.249 27.5426 267.103 28.652 269.461 30.8687C271.821 33.0875 273 35.7576 273 38.8833C273 42.009 271.821 44.6812 269.461 46.8979C267.103 49.1166 264.249 50.2239 260.902 50.2239H251.829C250.821 50.2239 250.317 49.7198 250.317 48.7117V44.175C250.317 43.1669 250.821 42.6628 251.829 42.6628H260.902Z" fill="white"/>
</svg>
